<?xml version="1.0" standalone="no"?><!DOCTYPE svg PUBLIC "-//W3C//DTD SVG 1.1//EN" "http://www.w3.org/Graphics/SVG/1.1/DTD/svg11.dtd"><svg t="1514272087858" class="icon" style="" viewBox="0 0 1024 1024" version="1.1" xmlns="http://www.w3.org/2000/svg" p-id="3009" xmlns:xlink="http://www.w3.org/1999/xlink" width="200" height="200"><defs><style type="text/css"></style></defs><path d="M896 1024H128C57.312256 1024 0 966.700032 0 896V128C0 57.312256 57.312256 0 128 0h768c70.700032 0 128 57.312256 128 128v768c0 70.700032-57.299968 128-128 128z m51.2-870.4c0-42.412032-34.374656-76.8-76.8-76.8H153.6c-42.412032 0-76.8 34.387968-76.8 76.8v716.8c0 42.425344 34.387968 76.8 76.8 76.8h716.8c42.425344 0 76.8-34.374656 76.8-76.8V153.6z" fill="" p-id="3010"></path></svg>