<?xml version="1.0" standalone="no"?><!DOCTYPE svg PUBLIC "-//W3C//DTD SVG 1.1//EN" "http://www.w3.org/Graphics/SVG/1.1/DTD/svg11.dtd"><svg t="1514271220168" class="icon" style="" viewBox="0 0 1024 1024" version="1.1" xmlns="http://www.w3.org/2000/svg" p-id="1846" xmlns:xlink="http://www.w3.org/1999/xlink" width="200" height="200"><defs><style type="text/css"></style></defs><path d="M128 0h768c70.4 0 128 57.6 128 128v768c0 70.4-57.6 128-128 128H128c-70.4 0-128-57.6-128-128V128C0 57.6 57.6 0 128 0z" fill="#2C7EDC" p-id="1847" data-spm-anchor-id="a313x.7781069.0.i3" class="selected"></path><path d="M448 736c-19.2 0-32-6.4-44.8-19.2l-192-192c-25.6-25.6-25.6-64 0-89.6s64-25.6 89.6 0L448 582.4l307.2-307.2c25.6-25.6 64-25.6 89.6 0s25.6 64 0 89.6l-352 352c-12.8 12.8-25.6 19.2-44.8 19.2z" fill="#FFFFFF" p-id="1848"></path></svg>